<svg xmlns="http://www.w3.org/2000/svg" width="20" height="20" viewBox="0 0 20 20">
  <path id="Exclusion_2" data-name="Exclusion 2" d="M10,20A10,10,0,1,1,20,10,10.011,10.011,0,0,1,10,20ZM9.207,5C9.144,5,9.09,5,9.04,5A4.651,4.651,0,0,0,4.5,9.748a4.65,4.65,0,0,0,4.54,4.744c.1.008.206.013.3.013A3.64,3.64,0,0,0,12.606,12.5a2.732,2.732,0,0,1-2.263,1.2,2.677,2.677,0,0,1-.338-.021,3.785,3.785,0,0,1-3.7-3.863,3.789,3.789,0,0,1,3.7-3.864c.061,0,.128-.006.2-.006a3.146,3.146,0,0,1,2.829,1.749A4.074,4.074,0,0,0,9.207,5Zm4.5,2.839h0l-.077,1.828-1.619.457,1.573.622-.076,1.795,1.085-1.4,1.611.637-.946-1.492L16.336,8.9l-1.66.468-.971-1.532Z" fill="#e53030"/>
</svg>
